<svg width="62" height="99" viewBox="0 0 62 99" fill="none" xmlns="http://www.w3.org/2000/svg">
<path d="M8.25433 65.1492V72H7.35343V66.8916L5.07643 72H4.44283L2.15593 66.8817V72H1.25503V65.1492H2.22523L4.75963 70.812L7.29403 65.1492H8.25433ZM14.7322 69.0795C14.7322 69.2511 14.7223 69.4326 14.7025 69.624H10.3663C10.3993 70.1586 10.5808 70.5777 10.9108 70.8813C11.2474 71.1783 11.6533 71.3268 12.1285 71.3268C12.5179 71.3268 12.8413 71.2377 13.0987 71.0595C13.3627 70.8747 13.5475 70.6305 13.6531 70.3269H14.6233C14.4781 70.8483 14.1877 71.274 13.7521 71.604C13.3165 71.9274 12.7753 72.0891 12.1285 72.0891C11.6137 72.0891 11.1517 71.9736 10.7425 71.7426C10.3399 71.5116 10.0231 71.1849 9.79207 70.7625C9.56107 70.3335 9.44557 69.8385 9.44557 69.2775C9.44557 68.7165 9.55777 68.2248 9.78217 67.8024C10.0066 67.38 10.3201 67.0566 10.7227 66.8322C11.1319 66.6012 11.6005 66.4857 12.1285 66.4857C12.6433 66.4857 13.0987 66.5979 13.4947 66.8223C13.8907 67.0467 14.1943 67.3569 14.4055 67.7529C14.6233 68.1423 14.7322 68.5845 14.7322 69.0795ZM13.8016 68.8914C13.8016 68.5482 13.7257 68.2545 13.5739 68.0103C13.4221 67.7595 13.2142 67.5714 12.9502 67.446C12.6928 67.314 12.4057 67.248 12.0889 67.248C11.6335 67.248 11.2441 67.3932 10.9207 67.6836C10.6039 67.974 10.4224 68.3766 10.3762 68.8914H13.8016ZM16.8222 64.674V72H15.9213V64.674H16.8222ZM20.7238 72.0891C20.2156 72.0891 19.7536 71.9736 19.3378 71.7426C18.9286 71.5116 18.6052 71.1849 18.3676 70.7625C18.1366 70.3335 18.0211 69.8385 18.0211 69.2775C18.0211 68.7231 18.1399 68.2347 18.3775 67.8123C18.6217 67.3833 18.9517 67.0566 19.3675 66.8322C19.7833 66.6012 20.2486 66.4857 20.7634 66.4857C21.2782 66.4857 21.7435 66.6012 22.1593 66.8322C22.5751 67.0566 22.9018 67.38 23.1394 67.8024C23.3836 68.2248 23.5057 68.7165 23.5057 69.2775C23.5057 69.8385 23.3803 70.3335 23.1295 70.7625C22.8853 71.1849 22.552 71.5116 22.1296 71.7426C21.7072 71.9736 21.2386 72.0891 20.7238 72.0891ZM20.7238 71.2971C21.0472 71.2971 21.3508 71.2212 21.6346 71.0694C21.9184 70.9176 22.1461 70.6899 22.3177 70.3863C22.4959 70.0827 22.585 69.7131 22.585 69.2775C22.585 68.8419 22.4992 68.4723 22.3276 68.1687C22.156 67.8651 21.9316 67.6407 21.6544 67.4955C21.3772 67.3437 21.0769 67.2678 20.7535 67.2678C20.4235 67.2678 20.1199 67.3437 19.8427 67.4955C19.5721 67.6407 19.3543 67.8651 19.1893 68.1687C19.0243 68.4723 18.9418 68.8419 18.9418 69.2775C18.9418 69.7197 19.021 70.0926 19.1794 70.3962C19.3444 70.6998 19.5622 70.9275 19.8328 71.0793C20.1034 71.2245 20.4004 71.2971 20.7238 71.2971ZM24.3536 69.2676C24.3536 68.7132 24.4658 68.2281 24.6902 67.8123C24.9146 67.3899 25.2215 67.0632 25.6109 66.8322C26.0069 66.6012 26.4491 66.4857 26.9375 66.4857C27.3599 66.4857 27.7526 66.5847 28.1156 66.7827C28.4786 66.9741 28.7558 67.2282 28.9472 67.545V64.674H29.858V72H28.9472V70.9803C28.769 71.3037 28.505 71.571 28.1552 71.7822C27.8054 71.9868 27.3962 72.0891 26.9276 72.0891C26.4458 72.0891 26.0069 71.9703 25.6109 71.7327C25.2215 71.4951 24.9146 71.1618 24.6902 70.7328C24.4658 70.3038 24.3536 69.8154 24.3536 69.2676ZM28.9472 69.2775C28.9472 68.8683 28.8647 68.5119 28.6997 68.2083C28.5347 67.9047 28.3103 67.6737 28.0265 67.5153C27.7493 67.3503 27.4424 67.2678 27.1058 67.2678C26.7692 67.2678 26.4623 67.347 26.1851 67.5054C25.9079 67.6638 25.6868 67.8948 25.5218 68.1984C25.3568 68.502 25.2743 68.8584 25.2743 69.2676C25.2743 69.6834 25.3568 70.0464 25.5218 70.3566C25.6868 70.6602 25.9079 70.8945 26.1851 71.0595C26.4623 71.2179 26.7692 71.2971 27.1058 71.2971C27.4424 71.2971 27.7493 71.2179 28.0265 71.0595C28.3103 70.8945 28.5347 70.6602 28.6997 70.3566C28.8647 70.0464 28.9472 69.6867 28.9472 69.2775ZM36.0532 66.5748L32.7862 74.5542H31.8556L32.9248 71.9406L30.7369 66.5748H31.7368L33.4396 70.9704L35.1226 66.5748H36.0532ZM44.6808 65.0502V72H42.9879V67.8321L41.4336 72H40.0674L38.5032 67.8222V72H36.8103V65.0502H38.8101L40.7604 69.8616L42.6909 65.0502H44.6808ZM51.1056 69.1488C51.1056 69.3072 51.0957 69.4722 51.0759 69.6438H47.2446C47.271 69.987 47.3799 70.251 47.5713 70.4358C47.7693 70.614 48.0102 70.7031 48.294 70.7031C48.7164 70.7031 49.0101 70.5249 49.1751 70.1685H50.9769C50.8845 70.5315 50.7162 70.8582 50.472 71.1486C50.2344 71.439 49.9341 71.6667 49.5711 71.8317C49.2081 71.9967 48.8022 72.0792 48.3534 72.0792C47.8122 72.0792 47.3304 71.9637 46.908 71.7327C46.4856 71.5017 46.1556 71.1717 45.918 70.7427C45.6804 70.3137 45.5616 69.8121 45.5616 69.2379C45.5616 68.6637 45.6771 68.1621 45.9081 67.7331C46.1457 67.3041 46.4757 66.9741 46.8981 66.7431C47.3205 66.5121 47.8056 66.3966 48.3534 66.3966C48.888 66.3966 49.3632 66.5088 49.779 66.7332C50.1948 66.9576 50.5182 67.2777 50.7492 67.6935C50.9868 68.1093 51.1056 68.5944 51.1056 69.1488ZM49.3731 68.7033C49.3731 68.4129 49.2741 68.1819 49.0761 68.0103C48.8781 67.8387 48.6306 67.7529 48.3336 67.7529C48.0498 67.7529 47.8089 67.8354 47.6109 68.0004C47.4195 68.1654 47.3007 68.3997 47.2545 68.7033H49.3731ZM57.2061 69.1488C57.2061 69.3072 57.1962 69.4722 57.1764 69.6438H53.3451C53.3715 69.987 53.4804 70.251 53.6718 70.4358C53.8698 70.614 54.1107 70.7031 54.3945 70.7031C54.8169 70.7031 55.1106 70.5249 55.2756 70.1685H57.0774C56.985 70.5315 56.8167 70.8582 56.5725 71.1486C56.3349 71.439 56.0346 71.6667 55.6716 71.8317C55.3086 71.9967 54.9027 72.0792 54.4539 72.0792C53.9127 72.0792 53.4309 71.9637 53.0085 71.7327C52.5861 71.5017 52.2561 71.1717 52.0185 70.7427C51.7809 70.3137 51.6621 69.8121 51.6621 69.2379C51.6621 68.6637 51.7776 68.1621 52.0086 67.7331C52.2462 67.3041 52.5762 66.9741 52.9986 66.7431C53.421 66.5121 53.9061 66.3966 54.4539 66.3966C54.9885 66.3966 55.4637 66.5088 55.8795 66.7332C56.2953 66.9576 56.6187 67.2777 56.8497 67.6935C57.0873 68.1093 57.2061 68.5944 57.2061 69.1488ZM55.4736 68.7033C55.4736 68.4129 55.3746 68.1819 55.1766 68.0103C54.9786 67.8387 54.7311 67.7529 54.4341 67.7529C54.1503 67.7529 53.9094 67.8354 53.7114 68.0004C53.52 68.1654 53.4012 68.3997 53.355 68.7033H55.4736ZM61.1781 70.5645V72H60.3168C59.703 72 59.2245 71.8515 58.8813 71.5545C58.5381 71.2509 58.3665 70.7592 58.3665 70.0794V67.8816H57.6933V66.4758H58.3665V65.1294H60.0594V66.4758H61.1682V67.8816H60.0594V70.0992C60.0594 70.2642 60.099 70.383 60.1782 70.4556C60.2574 70.5282 60.3894 70.5645 60.5742 70.5645H61.1781Z" fill="#FC3F93"/>
<rect x="1" width="60" height="60" rx="30" fill="#FC3F93"/>
<path d="M23.9503 50.3225C20.5908 46.3182 12.0442 15.3225 16.0442 15.3225C20.0442 15.3225 28.2739 39.0188 31 36C33.7261 32.9812 48.4236 2.77146 44.1049 14.7844C39.7861 26.7973 45.544 47.3193 45.5444 50.3225" stroke="white" stroke-width="8"/>
</svg>
