<svg width="75" height="99" viewBox="0 0 75 99" fill="none" xmlns="http://www.w3.org/2000/svg">
<circle cx="37.5" cy="37.5" r="37.5" fill="#FC3F93"/>
<path d="M58.5 30.75C58.5 21.6373 49.2659 14.25 37.875 14.25C26.4841 14.25 17.25 21.6373 17.25 30.75" stroke="white" stroke-width="5"/>
<rect x="25.5" y="39.75" width="7.5" height="21.75" rx="3.75" fill="white"/>
<rect x="44.25" y="39.75" width="7.5" height="21.75" rx="3.75" fill="white"/>
<rect x="12.75" y="29.25" width="9" height="27.75" rx="4.5" fill="white"/>
<path d="M54.75 33C54.75 30.9289 56.4289 29.25 58.5 29.25V29.25C60.5711 29.25 62.25 30.9289 62.25 33V53.25C62.25 55.3211 60.5711 57 58.5 57V57C56.4289 57 54.75 55.3211 54.75 53.25V33Z" fill="white"/>
<path d="M13.5246 83.08V90H12.6146V84.84L10.3146 90H9.67457L7.36457 84.83V90H6.45457V83.08H7.43457L9.99457 88.8L12.5546 83.08H13.5246ZM20.0679 87.05C20.0679 87.2233 20.0579 87.4067 20.0379 87.6H15.6579C15.6912 88.14 15.8745 88.5633 16.2079 88.87C16.5479 89.17 16.9579 89.32 17.4379 89.32C17.8312 89.32 18.1579 89.23 18.4179 89.05C18.6845 88.8633 18.8712 88.6167 18.9779 88.31H19.9579C19.8112 88.8367 19.5179 89.2667 19.0779 89.6C18.6379 89.9267 18.0912 90.09 17.4379 90.09C16.9179 90.09 16.4512 89.9733 16.0379 89.74C15.6312 89.5067 15.3112 89.1767 15.0779 88.75C14.8445 88.3167 14.7279 87.8167 14.7279 87.25C14.7279 86.6833 14.8412 86.1867 15.0679 85.76C15.2945 85.3333 15.6112 85.0067 16.0179 84.78C16.4312 84.5467 16.9045 84.43 17.4379 84.43C17.9579 84.43 18.4179 84.5433 18.8179 84.77C19.2179 84.9967 19.5245 85.31 19.7379 85.71C19.9579 86.1033 20.0679 86.55 20.0679 87.05ZM19.1279 86.86C19.1279 86.5133 19.0512 86.2167 18.8979 85.97C18.7445 85.7167 18.5345 85.5267 18.2679 85.4C18.0079 85.2667 17.7179 85.2 17.3979 85.2C16.9379 85.2 16.5445 85.3467 16.2179 85.64C15.8979 85.9333 15.7145 86.34 15.6679 86.86H19.1279ZM22.179 82.6V90H21.269V82.6H22.179ZM26.12 90.09C25.6066 90.09 25.14 89.9733 24.72 89.74C24.3066 89.5067 23.98 89.1767 23.74 88.75C23.5066 88.3167 23.39 87.8167 23.39 87.25C23.39 86.69 23.51 86.1967 23.75 85.77C23.9966 85.3367 24.33 85.0067 24.75 84.78C25.17 84.5467 25.64 84.43 26.16 84.43C26.68 84.43 27.15 84.5467 27.57 84.78C27.99 85.0067 28.32 85.3333 28.56 85.76C28.8066 86.1867 28.93 86.6833 28.93 87.25C28.93 87.8167 28.8033 88.3167 28.55 88.75C28.3033 89.1767 27.9666 89.5067 27.54 89.74C27.1133 89.9733 26.64 90.09 26.12 90.09ZM26.12 89.29C26.4466 89.29 26.7533 89.2133 27.04 89.06C27.3266 88.9067 27.5566 88.6767 27.73 88.37C27.91 88.0633 28 87.69 28 87.25C28 86.81 27.9133 86.4367 27.74 86.13C27.5666 85.8233 27.34 85.5967 27.06 85.45C26.78 85.2967 26.4766 85.22 26.15 85.22C25.8166 85.22 25.51 85.2967 25.23 85.45C24.9566 85.5967 24.7366 85.8233 24.57 86.13C24.4033 86.4367 24.32 86.81 24.32 87.25C24.32 87.6967 24.4 88.0733 24.56 88.38C24.7266 88.6867 24.9466 88.9167 25.22 89.07C25.4933 89.2167 25.7933 89.29 26.12 89.29ZM29.7864 87.24C29.7864 86.68 29.8998 86.19 30.1264 85.77C30.3531 85.3433 30.6631 85.0133 31.0564 84.78C31.4564 84.5467 31.9031 84.43 32.3964 84.43C32.8231 84.43 33.2198 84.53 33.5864 84.73C33.9531 84.9233 34.2331 85.18 34.4264 85.5V82.6H35.3464V90H34.4264V88.97C34.2464 89.2967 33.9798 89.5667 33.6264 89.78C33.2731 89.9867 32.8598 90.09 32.3864 90.09C31.8998 90.09 31.4564 89.97 31.0564 89.73C30.6631 89.49 30.3531 89.1533 30.1264 88.72C29.8998 88.2867 29.7864 87.7933 29.7864 87.24ZM34.4264 87.25C34.4264 86.8367 34.3431 86.4767 34.1764 86.17C34.0098 85.8633 33.7831 85.63 33.4964 85.47C33.2164 85.3033 32.9064 85.22 32.5664 85.22C32.2264 85.22 31.9164 85.3 31.6364 85.46C31.3564 85.62 31.1331 85.8533 30.9664 86.16C30.7998 86.4667 30.7164 86.8267 30.7164 87.24C30.7164 87.66 30.7998 88.0267 30.9664 88.34C31.1331 88.6467 31.3564 88.8833 31.6364 89.05C31.9164 89.21 32.2264 89.29 32.5664 89.29C32.9064 89.29 33.2164 89.21 33.4964 89.05C33.7831 88.8833 34.0098 88.6467 34.1764 88.34C34.3431 88.0267 34.4264 87.6633 34.4264 87.25ZM41.6043 84.52L38.3043 92.58H37.3643L38.4443 89.94L36.2343 84.52H37.2443L38.9643 88.96L40.6643 84.52H41.6043ZM50.319 82.98V90H48.609V85.79L47.039 90H45.659L44.079 85.78V90H42.369V82.98H44.389L46.359 87.84L48.309 82.98H50.319ZM56.8087 87.12C56.8087 87.28 56.7987 87.4467 56.7787 87.62H52.9087C52.9354 87.9667 53.0454 88.2333 53.2387 88.42C53.4387 88.6 53.682 88.69 53.9687 88.69C54.3954 88.69 54.692 88.51 54.8587 88.15H56.6787C56.5854 88.5167 56.4154 88.8467 56.1687 89.14C55.9287 89.4333 55.6254 89.6633 55.2587 89.83C54.892 89.9967 54.482 90.08 54.0287 90.08C53.482 90.08 52.9954 89.9633 52.5687 89.73C52.142 89.4967 51.8087 89.1633 51.5687 88.73C51.3287 88.2967 51.2087 87.79 51.2087 87.21C51.2087 86.63 51.3254 86.1233 51.5587 85.69C51.7987 85.2567 52.132 84.9233 52.5587 84.69C52.9854 84.4567 53.4754 84.34 54.0287 84.34C54.5687 84.34 55.0487 84.4533 55.4687 84.68C55.8887 84.9067 56.2154 85.23 56.4487 85.65C56.6887 86.07 56.8087 86.56 56.8087 87.12ZM55.0587 86.67C55.0587 86.3767 54.9587 86.1433 54.7587 85.97C54.5587 85.7967 54.3087 85.71 54.0087 85.71C53.722 85.71 53.4787 85.7933 53.2787 85.96C53.0854 86.1267 52.9654 86.3633 52.9187 86.67H55.0587ZM62.9708 87.12C62.9708 87.28 62.9608 87.4467 62.9408 87.62H59.0708C59.0975 87.9667 59.2075 88.2333 59.4008 88.42C59.6008 88.6 59.8442 88.69 60.1308 88.69C60.5575 88.69 60.8542 88.51 61.0208 88.15H62.8408C62.7475 88.5167 62.5775 88.8467 62.3308 89.14C62.0908 89.4333 61.7875 89.6633 61.4208 89.83C61.0542 89.9967 60.6442 90.08 60.1908 90.08C59.6442 90.08 59.1575 89.9633 58.7308 89.73C58.3042 89.4967 57.9708 89.1633 57.7308 88.73C57.4908 88.2967 57.3708 87.79 57.3708 87.21C57.3708 86.63 57.4875 86.1233 57.7208 85.69C57.9608 85.2567 58.2942 84.9233 58.7208 84.69C59.1475 84.4567 59.6375 84.34 60.1908 84.34C60.7308 84.34 61.2108 84.4533 61.6308 84.68C62.0508 84.9067 62.3775 85.23 62.6108 85.65C62.8508 86.07 62.9708 86.56 62.9708 87.12ZM61.2208 86.67C61.2208 86.3767 61.1208 86.1433 60.9208 85.97C60.7208 85.7967 60.4708 85.71 60.1708 85.71C59.8842 85.71 59.6408 85.7933 59.4408 85.96C59.2475 86.1267 59.1275 86.3633 59.0808 86.67H61.2208ZM66.9829 88.55V90H66.1129C65.4929 90 65.0096 89.85 64.6629 89.55C64.3163 89.2433 64.1429 88.7467 64.1429 88.06V85.84H63.4629V84.42H64.1429V83.06H65.8529V84.42H66.9729V85.84H65.8529V88.08C65.8529 88.2467 65.8929 88.3667 65.9729 88.44C66.0529 88.5133 66.1863 88.55 66.3729 88.55H66.9829Z" fill="#FC3F93"/>
</svg>
